<?xml version="1.0" encoding="UTF-8"?>
<svg id="Camada_1" data-name="Camada 1" xmlns="http://www.w3.org/2000/svg" viewBox="0 0 97.49 91.3">
  <defs>
    <style>
      .cls-1 {
        fill: #ff9831;
      }

      .cls-2 {
        fill: #0878ff;
      }
    </style>
  </defs>
  <path class="cls-1" d="M97.49,0V88.04h-11.93c4.36-4.5,7.04-10.64,7.04-17.39,0-13.8-11.2-25-25-25s-24.47,10.68-24.98,24.03c-.01,.32-.02,.65-.02,.97,0,6.75,2.68,12.89,7.04,17.39H23.57V0H97.49Z"/>
  <path class="cls-2" d="M38.04,45.65c0,11.06,7.03,20.48,16.87,24.03,2.71,.99,5.63,1.52,8.68,1.52,1.67,0,3.31-.16,4.89-.47v20.57H0V0H68.48V20.58c-1.58-.31-3.22-.47-4.89-.47-14.11,0-25.55,11.43-25.55,25.54Z"/>
</svg>